<svg xmlns="http://www.w3.org/2000/svg" xmlns:xlink="http://www.w3.org/1999/xlink" width="24px"
    height="24px" viewBox="0 0 24 24" version="1.1">
    <g id="surface1">
        <path style=" stroke:none;fill-rule:nonzero;fill:rgb(0%,0%,0%);fill-opacity:1;"
            d="M 18.96875 14.867188 C 18.476562 14.355469 17.882812 14.082031 17.253906 14.082031 C 16.632812 14.082031 16.035156 14.351562 15.523438 14.863281 L 13.921875 16.457031 C 13.789062 16.386719 13.660156 16.320312 13.53125 16.253906 C 13.351562 16.164062 13.179688 16.078125 13.03125 15.988281 C 11.53125 15.035156 10.167969 13.792969 8.863281 12.1875 C 8.230469 11.386719 7.804688 10.714844 7.496094 10.03125 C 7.910156 9.648438 8.292969 9.253906 8.667969 8.875 C 8.8125 8.734375 8.953125 8.585938 9.09375 8.445312 C 10.160156 7.378906 10.160156 6.003906 9.09375 4.9375 L 7.710938 3.554688 C 7.554688 3.398438 7.394531 3.238281 7.242188 3.074219 C 6.9375 2.761719 6.617188 2.4375 6.289062 2.132812 C 5.796875 1.648438 5.210938 1.386719 4.59375 1.386719 C 3.972656 1.386719 3.375 1.648438 2.871094 2.132812 C 2.863281 2.136719 2.863281 2.136719 2.859375 2.144531 L 1.136719 3.878906 C 0.488281 4.527344 0.121094 5.320312 0.0390625 6.234375 C -0.0820312 7.714844 0.351562 9.09375 0.6875 9.996094 C 1.507812 12.207031 2.734375 14.257812 4.5625 16.457031 C 6.78125 19.105469 9.449219 21.199219 12.5 22.671875 C 13.664062 23.226562 15.21875 23.878906 16.957031 23.988281 C 17.0625 23.996094 17.175781 24 17.277344 24 C 18.445312 24 19.429688 23.578125 20.199219 22.742188 C 20.203125 22.734375 20.214844 22.730469 20.21875 22.71875 C 20.480469 22.398438 20.785156 22.109375 21.105469 21.800781 C 21.324219 21.59375 21.546875 21.375 21.761719 21.148438 C 22.265625 20.625 22.527344 20.019531 22.527344 19.394531 C 22.527344 18.765625 22.261719 18.164062 21.75 17.65625 Z M 20.78125 20.199219 C 20.777344 20.199219 20.777344 20.207031 20.78125 20.199219 C 20.582031 20.414062 20.378906 20.605469 20.164062 20.820312 C 19.832031 21.132812 19.5 21.460938 19.183594 21.832031 C 18.671875 22.378906 18.070312 22.636719 17.28125 22.636719 C 17.203125 22.636719 17.125 22.636719 17.046875 22.632812 C 15.542969 22.535156 14.144531 21.949219 13.097656 21.445312 C 10.230469 20.058594 7.710938 18.089844 5.621094 15.589844 C 3.894531 13.507812 2.738281 11.585938 1.972656 9.519531 C 1.503906 8.257812 1.328125 7.273438 1.40625 6.347656 C 1.457031 5.753906 1.683594 5.261719 2.105469 4.84375 L 3.832031 3.117188 C 4.082031 2.882812 4.34375 2.757812 4.601562 2.757812 C 4.921875 2.757812 5.179688 2.949219 5.339844 3.109375 C 5.347656 3.117188 5.351562 3.121094 5.355469 3.125 C 5.664062 3.414062 5.960938 3.714844 6.269531 4.03125 C 6.425781 4.195312 6.585938 4.355469 6.75 4.523438 L 8.132812 5.90625 C 8.667969 6.445312 8.667969 6.941406 8.132812 7.476562 C 7.984375 7.625 7.84375 7.769531 7.695312 7.914062 C 7.273438 8.347656 6.867188 8.753906 6.425781 9.148438 C 6.414062 9.160156 6.40625 9.164062 6.402344 9.171875 C 5.964844 9.609375 6.046875 10.035156 6.136719 10.324219 C 6.140625 10.339844 6.148438 10.355469 6.152344 10.367188 C 6.511719 11.242188 7.019531 12.0625 7.789062 13.039062 L 7.792969 13.042969 C 9.191406 14.765625 10.664062 16.109375 12.292969 17.136719 C 12.5 17.269531 12.710938 17.375 12.914062 17.476562 C 13.097656 17.566406 13.269531 17.652344 13.414062 17.746094 C 13.4375 17.753906 13.457031 17.769531 13.476562 17.78125 C 13.648438 17.867188 13.8125 17.90625 13.976562 17.90625 C 14.398438 17.90625 14.660156 17.644531 14.75 17.558594 L 16.480469 15.824219 C 16.652344 15.652344 16.925781 15.445312 17.246094 15.445312 C 17.558594 15.445312 17.816406 15.640625 17.976562 15.8125 C 17.980469 15.820312 17.980469 15.820312 17.984375 15.824219 L 20.777344 18.617188 C 21.296875 19.132812 21.296875 19.664062 20.78125 20.199219 Z M 20.78125 20.199219 " />
        <path style=" stroke:none;fill-rule:nonzero;fill:rgb(0%,0%,0%);fill-opacity:1;"
            d="M 12.96875 5.707031 C 14.296875 5.933594 15.503906 6.558594 16.464844 7.523438 C 17.425781 8.484375 18.050781 9.691406 18.277344 11.015625 C 18.335938 11.351562 18.625 11.585938 18.953125 11.585938 C 18.992188 11.585938 19.027344 11.578125 19.070312 11.574219 C 19.445312 11.515625 19.691406 11.160156 19.632812 10.785156 C 19.359375 9.179688 18.597656 7.714844 17.4375 6.554688 C 16.277344 5.394531 14.8125 4.636719 13.207031 4.363281 C 12.832031 4.300781 12.484375 4.550781 12.417969 4.917969 C 12.351562 5.289062 12.59375 5.648438 12.96875 5.707031 Z M 12.96875 5.707031 " />
        <path style=" stroke:none;fill-rule:nonzero;fill:rgb(0%,0%,0%);fill-opacity:1;"
            d="M 23.972656 10.585938 C 23.519531 7.941406 22.273438 5.535156 20.359375 3.621094 C 18.445312 1.707031 16.039062 0.460938 13.394531 0.0117188 C 13.027344 -0.0546875 12.675781 0.199219 12.609375 0.566406 C 12.550781 0.941406 12.796875 1.292969 13.171875 1.359375 C 15.535156 1.757812 17.6875 2.878906 19.398438 4.585938 C 21.109375 6.296875 22.222656 8.449219 22.625 10.808594 C 22.679688 11.144531 22.96875 11.378906 23.296875 11.378906 C 23.339844 11.378906 23.375 11.371094 23.414062 11.367188 C 23.785156 11.3125 24.039062 10.957031 23.972656 10.585938 Z M 23.972656 10.585938 " />
    </g>
</svg>